<svg width="1200" height="750" viewBox="0 0 1200 750" fill="none" xmlns="http://www.w3.org/2000/svg">
  <rect width="1200" height="750" fill="#3984FF"/>
  <rect x="42" y="42" width="1116" height="666" rx="4" fill="#F5F1E8"/>
  <rect x="42" y="42" width="1116" height="56" rx="4" fill="#171817"/>
  <circle cx="72" cy="70" r="8" fill="#D8FF3E"/>
  <circle cx="100" cy="70" r="8" fill="#F5F1E8" fill-opacity="0.35"/>
  <circle cx="128" cy="70" r="8" fill="#F5F1E8" fill-opacity="0.35"/>
  <rect x="180" y="61" width="190" height="18" rx="9" fill="#F5F1E8" fill-opacity="0.12"/>
  <rect x="78" y="138" width="230" height="520" fill="#E7E1D4"/>
  <rect x="100" y="166" width="126" height="12" rx="6" fill="#171817" fill-opacity="0.28"/>
  <rect x="100" y="206" width="164" height="46" rx="6" fill="#3984FF"/>
  <rect x="120" y="222" width="88" height="12" rx="6" fill="#F5F1E8"/>
  <rect x="100" y="278" width="164" height="46" rx="6" fill="#F5F1E8"/>
  <rect x="120" y="294" width="108" height="12" rx="6" fill="#171817" fill-opacity="0.35"/>
  <rect x="100" y="350" width="164" height="46" rx="6" fill="#F5F1E8"/>
  <rect x="120" y="366" width="92" height="12" rx="6" fill="#171817" fill-opacity="0.35"/>
  <rect x="354" y="138" width="700" height="520" fill="#FFFFFF"/>
  <rect x="430" y="202" width="480" height="340" fill="#3984FF"/>
  <circle cx="792" cy="280" r="94" fill="#D8FF3E"/>
  <circle cx="792" cy="540" r="142" stroke="#171817" stroke-width="34"/>
  <rect x="634" y="332" width="92" height="92" transform="rotate(45 634 332)" fill="#FFFFFF"/>
  <rect x="466" y="466" width="170" height="18" rx="9" fill="#F5F1E8" fill-opacity="0.75"/>
  <rect x="466" y="500" width="250" height="14" rx="7" fill="#F5F1E8" fill-opacity="0.45"/>
  <rect x="1080" y="138" width="48" height="520" fill="#E7E1D4"/>
  <rect x="1094" y="170" width="20" height="20" rx="4" fill="#171817" fill-opacity="0.28"/>
  <rect x="1094" y="214" width="20" height="20" rx="4" fill="#171817" fill-opacity="0.18"/>
</svg>
