<svg width="36" height="35" viewBox="0 0 36 35" fill="none" xmlns="http://www.w3.org/2000/svg">
<g clip-path="url(#clip0_2177_645)">
<mask id="mask0_2177_645" style="mask-type:alpha" maskUnits="userSpaceOnUse" x="0" y="0" width="36" height="35">
<path d="M18.4131 35C28.0781 35 35.9131 27.165 35.9131 17.5C35.9131 7.83502 28.0781 0 18.4131 0C8.7481 0 0.913086 7.83502 0.913086 17.5C0.913086 27.165 8.7481 35 18.4131 35Z" fill="black"/>
</mask>
<g mask="url(#mask0_2177_645)">
<path d="M18.4131 34.4166C27.7559 34.4166 35.3298 26.8427 35.3298 17.4999C35.3298 8.1571 27.7559 0.583252 18.4131 0.583252C9.07031 0.583252 1.49646 8.1571 1.49646 17.4999C1.49646 26.8427 9.07031 34.4166 18.4131 34.4166Z" fill="black"/>
<path fill-rule="evenodd" clip-rule="evenodd" d="M18.4131 1.16667C9.39243 1.16667 2.07975 8.47935 2.07975 17.5C2.07975 26.5206 9.39243 33.8333 18.4131 33.8333C27.4337 33.8333 34.7464 26.5206 34.7464 17.5C34.7464 8.47935 27.4337 1.16667 18.4131 1.16667ZM0.913086 17.5C0.913086 7.83502 8.7481 0 18.4131 0C28.0781 0 35.9131 7.83502 35.9131 17.5C35.9131 27.165 28.0781 35 18.4131 35C8.7481 35 0.913086 27.165 0.913086 17.5Z" fill="white"/>
<path d="M29.9841 30.6289L14.3574 10.5H11.4131V24.4942H13.7685V13.4913L28.1351 32.0532C28.7834 31.6194 29.4009 31.1432 29.9841 30.6289Z" fill="url(#paint0_linear_2177_645)"/>
<path d="M25.6075 10.5H23.2742V24.5H25.6075V10.5Z" fill="url(#paint1_linear_2177_645)"/>
</g>
</g>
<defs>
<linearGradient id="paint0_linear_2177_645" x1="22.1075" y1="22.6528" x2="29.0103" y2="31.2083" gradientUnits="userSpaceOnUse">
<stop stop-color="white"/>
<stop offset="1" stop-color="white" stop-opacity="0"/>
</linearGradient>
<linearGradient id="paint1_linear_2177_645" x1="24.4408" y1="10.5" x2="24.4018" y2="20.7813" gradientUnits="userSpaceOnUse">
<stop stop-color="white"/>
<stop offset="1" stop-color="white" stop-opacity="0"/>
</linearGradient>
<clipPath id="clip0_2177_645">
<rect width="35" height="35" fill="white" transform="translate(0.913086)"/>
</clipPath>
</defs>
</svg>
