<svg width="35" height="33" viewBox="0 0 35 33" fill="none" xmlns="http://www.w3.org/2000/svg">
<g clip-path="url(#clip0_2177_635)">
<path d="M28.777 11.0073C28.4045 10.8795 28.0289 10.7611 27.6504 10.6522C27.714 10.3925 27.7725 10.1358 27.8245 9.88373C28.6773 5.74375 28.1198 2.4085 26.2154 1.31037C24.3895 0.257637 21.4035 1.35535 18.3877 3.97994C18.0905 4.23907 17.7999 4.50567 17.5161 4.77947C17.3262 4.5974 17.1329 4.41886 16.9363 4.24395C13.7756 1.43766 10.6076 0.254903 8.70529 1.35617C6.88105 2.41219 6.34088 5.54756 7.10869 9.47111C7.18508 9.8597 7.27133 10.2463 7.36736 10.6305C6.91893 10.7579 6.48621 10.8935 6.07209 11.0379C2.36646 12.3299 0 14.3546 0 16.4547C0 18.6238 2.54051 20.7994 6.40008 22.1186C6.71298 22.2251 7.02849 22.3238 7.34631 22.4146C7.24309 22.8284 7.15145 23.245 7.0715 23.6639C6.33951 27.5194 6.91113 30.5806 8.73045 31.6299C10.6095 32.7136 13.7633 31.5999 16.8342 28.9154C17.0832 28.6971 17.3267 28.4727 17.5645 28.2423C17.8718 28.5388 18.1873 28.8267 18.5106 29.1056C21.4854 31.6652 24.4232 32.6988 26.2407 31.6466C28.118 30.5598 28.7282 27.2712 27.936 23.2701C27.8736 22.9567 27.8036 22.6448 27.7262 22.3347C27.9476 22.2691 28.165 22.2015 28.3769 22.1313C32.3894 20.802 35 18.6527 35 16.4547C35 14.3469 32.5571 12.3086 28.777 11.0073ZM27.9068 20.7121C27.7154 20.7754 27.519 20.8365 27.3189 20.896C26.8759 19.4937 26.2782 18.0026 25.5466 16.462C26.2447 14.958 26.8194 13.486 27.25 12.0928C27.608 12.1965 27.9554 12.3057 28.2904 12.421C31.5293 13.536 33.5048 15.1845 33.5048 16.4547C33.5048 17.8077 31.3712 19.5641 27.9068 20.7121ZM26.4693 23.5605C26.8196 25.3297 26.8695 26.9293 26.6375 28.1798C26.4291 29.3035 26.0099 30.0526 25.4915 30.3527C24.3886 30.9912 22.0298 30.1613 19.4858 27.9722C19.1851 27.7129 18.8916 27.4452 18.6058 27.1696C19.5921 26.0911 20.5777 24.8372 21.5396 23.4446C23.2317 23.2945 24.8302 23.0489 26.2798 22.7138C26.3512 23.0019 26.4146 23.2844 26.4693 23.5605ZM11.9323 30.2424C10.8546 30.6229 9.99633 30.6338 9.47748 30.3347C8.37348 29.698 7.91451 27.2399 8.54055 23.9428C8.61496 23.5532 8.70017 23.1657 8.79607 22.7808C10.2297 23.098 11.8166 23.3261 13.5126 23.4636C14.4811 24.8263 15.4952 26.0788 16.5171 27.1755C16.2999 27.3857 16.0776 27.5904 15.8504 27.7896C14.4923 28.9766 13.1316 29.8188 11.9323 30.2424ZM6.88379 20.7038C5.17713 20.1204 3.7677 19.3623 2.80164 18.535C1.93348 17.7917 1.49529 17.0535 1.49529 16.4547C1.49529 15.1802 3.39527 13.5546 6.56428 12.4498C6.94887 12.3158 7.35137 12.1894 7.76904 12.0707C8.20709 13.4953 8.78158 14.9848 9.47488 16.4911C8.77256 18.0196 8.18986 19.5329 7.74758 20.9744C7.45748 20.8913 7.16946 20.801 6.88379 20.7038ZM8.57609 9.18387C7.91834 5.82236 8.35516 3.28664 9.45451 2.65022C10.6254 1.97236 13.2146 2.93883 15.9436 5.36203C16.1215 5.5204 16.2966 5.68199 16.4687 5.8467C15.4518 6.93867 14.4471 8.18186 13.4872 9.53647C11.8411 9.68904 10.2654 9.93404 8.81672 10.2623C8.72746 9.90495 8.64723 9.54527 8.57609 9.18387ZM23.6735 12.9119C23.3314 12.3209 22.9765 11.7373 22.6092 11.1615C23.7259 11.3027 24.7959 11.4902 25.8006 11.7193C25.499 12.6862 25.123 13.697 24.6805 14.7333C24.357 14.1195 24.0213 13.5123 23.6735 12.9119ZM17.5168 6.91529C18.2064 7.66246 18.8971 8.49658 19.5765 9.40166C18.1984 9.33658 16.8179 9.3363 15.4398 9.40084C16.1198 8.5041 16.8164 7.67107 17.5168 6.91529ZM11.3206 12.9222C10.9772 13.5177 10.6477 14.1212 10.3325 14.7321C9.89721 13.6994 9.52465 12.684 9.22045 11.7035C10.219 11.4801 11.2839 11.2974 12.3936 11.1588C12.0221 11.738 11.6644 12.3261 11.3206 12.9222ZM12.4254 21.857C11.279 21.729 10.1981 21.5558 9.19981 21.3384C9.50879 20.3404 9.88955 19.3034 10.3343 18.2486C10.6508 18.8599 10.9816 19.4638 11.3265 20.0596C11.6811 20.6721 12.0483 21.272 12.4254 21.857ZM17.5581 26.0994C16.8494 25.3349 16.1425 24.489 15.4522 23.5793C16.1224 23.6055 16.8056 23.6189 17.5 23.6189C18.2134 23.6189 18.9186 23.6029 19.6127 23.572C18.9312 24.4981 18.2431 25.3453 17.5581 26.0994ZM24.6946 18.1947C25.1624 19.2611 25.5567 20.2927 25.8698 21.2736C24.8551 21.5052 23.7594 21.6917 22.6049 21.8302C22.9749 21.2438 23.3331 20.65 23.6794 20.0493C24.0315 19.4387 24.37 18.8204 24.6946 18.1947ZM22.3843 19.3023C21.8541 20.2233 21.2941 21.1268 20.7052 22.0114C19.6385 22.0869 18.5694 22.1245 17.5 22.1239C16.4108 22.1239 15.3513 22.09 14.3311 22.0238C13.7269 21.1413 13.1562 20.2362 12.6204 19.3105C12.0871 18.3897 11.589 17.449 11.1271 16.4904C11.5879 15.5316 12.0845 14.5904 12.616 13.6689L12.6159 13.6691C13.1471 12.7473 13.7133 11.8461 14.3129 10.9674C15.3538 10.8886 16.4212 10.8476 17.4999 10.8476C18.5835 10.8476 19.6524 10.889 20.6929 10.9683C21.2866 11.8458 21.8491 12.7439 22.3794 13.661C22.9126 14.5805 23.4158 15.517 23.8882 16.4692C23.4207 17.4311 22.9191 18.3761 22.3843 19.3023ZM25.4687 2.60565C26.6406 3.28158 27.0964 6.00734 26.3601 9.58186C26.313 9.8099 26.2603 10.0422 26.2028 10.2778C24.7506 9.94252 23.1738 9.69328 21.5229 9.53838C20.5613 8.16887 19.5647 6.92377 18.5644 5.84588C18.8265 5.59316 19.0949 5.34699 19.3694 5.1076C21.9533 2.85899 24.3683 1.97113 25.4687 2.60565ZM17.5 13.3293C19.2261 13.3293 20.6254 14.7286 20.6254 16.4547C20.6254 18.1808 19.2261 19.5801 17.5 19.5801C15.7739 19.5801 14.3746 18.1808 14.3746 16.4547C14.3746 14.7286 15.7739 13.3293 17.5 13.3293Z" fill="#00D8FF"/>
</g>
<defs>
<clipPath id="clip0_2177_635">
<rect width="35" height="31.1719" fill="white" transform="translate(0 0.914185)"/>
</clipPath>
</defs>
</svg>
