<svg width="36" height="35" viewBox="0 0 36 35" fill="none" xmlns="http://www.w3.org/2000/svg">
<path fill-rule="evenodd" clip-rule="evenodd" d="M22.3483 21.411C22.6046 21.1547 23.0201 21.1547 23.2764 21.411L30.9061 29.0407V23.625C30.9061 23.2626 31.1999 22.9688 31.5624 22.9688C31.9248 22.9688 32.2186 23.2626 32.2186 23.625V30.625C32.2186 30.9874 31.9248 31.2812 31.5624 31.2812H24.5624C24.1999 31.2812 23.9061 30.9874 23.9061 30.625C23.9061 30.2626 24.1999 29.9688 24.5624 29.9688H29.9781L22.3483 22.339C22.0921 22.0828 22.0921 21.6672 22.3483 21.411Z" fill="#222222"/>
<path fill-rule="evenodd" clip-rule="evenodd" d="M14.5264 21.411C14.7827 21.6672 14.7827 22.0828 14.5264 22.339L6.89671 29.9688H12.3124C12.6748 29.9688 12.9686 30.2626 12.9686 30.625C12.9686 30.9874 12.6748 31.2812 12.3124 31.2812H5.31238C4.94994 31.2812 4.65613 30.9874 4.65613 30.625V23.625C4.65613 23.2626 4.94994 22.9688 5.31238 22.9688C5.67481 22.9688 5.96863 23.2626 5.96863 23.625V29.0407L13.5983 21.411C13.8546 21.1547 14.2701 21.1547 14.5264 21.411Z" fill="#222222"/>
<path fill-rule="evenodd" clip-rule="evenodd" d="M23.9061 4.375C23.9061 4.01256 24.1999 3.71875 24.5624 3.71875H31.5624C31.9248 3.71875 32.2186 4.01256 32.2186 4.375V11.375C32.2186 11.7374 31.9248 12.0312 31.5624 12.0312C31.1999 12.0312 30.9061 11.7374 30.9061 11.375V5.95933L23.2764 13.589C23.0201 13.8453 22.6046 13.8453 22.3483 13.589C22.0921 13.3328 22.0921 12.9172 22.3483 12.661L29.9781 5.03125H24.5624C24.1999 5.03125 23.9061 4.73744 23.9061 4.375Z" fill="#222222"/>
<path fill-rule="evenodd" clip-rule="evenodd" d="M4.65613 4.375C4.65613 4.01256 4.94994 3.71875 5.31238 3.71875H12.3124C12.6748 3.71875 12.9686 4.01256 12.9686 4.375C12.9686 4.73744 12.6748 5.03125 12.3124 5.03125H6.89671L14.5264 12.661C14.7827 12.9172 14.7827 13.3328 14.5264 13.589C14.2701 13.8453 13.8546 13.8453 13.5983 13.589L5.96863 5.95933V11.375C5.96863 11.7374 5.67481 12.0312 5.31238 12.0312C4.94994 12.0312 4.65613 11.7374 4.65613 11.375V4.375Z" fill="#222222"/>
</svg>
