<svg width="35" height="35" viewBox="0 0 35 35" fill="none" xmlns="http://www.w3.org/2000/svg">
<g clip-path="url(#clip0_2192_351)">
<path d="M34.1344 17.0872L32.7184 16.21C32.7066 16.0722 32.6931 15.9347 32.6781 15.7972L33.8973 14.662C33.9582 14.6055 34.0036 14.5343 34.0292 14.4553C34.0547 14.3762 34.0595 14.2919 34.0431 14.2105C34.0273 14.1289 33.9907 14.0528 33.9368 13.9895C33.883 13.9263 33.8137 13.8779 33.7358 13.8492L32.178 13.2687C32.1389 13.1339 32.098 13 32.0559 12.8656L33.0269 11.5175C33.1002 11.4159 33.1314 11.29 33.1142 11.1659C33.097 11.0418 33.0326 10.9292 32.9344 10.8514C32.8695 10.7998 32.7925 10.7656 32.7108 10.7519L31.0691 10.4848C31.0053 10.3612 30.9395 10.2386 30.8717 10.1172L31.5619 8.60156C31.5966 8.52586 31.6113 8.44252 31.6047 8.35951C31.598 8.27649 31.5702 8.19656 31.5239 8.12734C31.4779 8.05809 31.4149 8.00181 31.3409 7.96392C31.2668 7.92603 31.1843 7.90778 31.1012 7.91094L29.4339 7.96906C29.3478 7.86125 29.26 7.75477 29.1706 7.64969L29.5544 6.02766C29.5736 5.94657 29.5718 5.86191 29.5491 5.78172C29.5264 5.70153 29.4836 5.62849 29.4246 5.56955C29.3657 5.51061 29.2927 5.46773 29.2125 5.445C29.1323 5.42227 29.0477 5.42044 28.9666 5.43969L27.3441 5.82344C27.2388 5.73415 27.1321 5.64643 27.0242 5.56031L27.0825 3.89297C27.0856 3.80992 27.0673 3.72747 27.0294 3.6535C26.9915 3.57953 26.9353 3.51651 26.8661 3.47047C26.7969 3.42421 26.717 3.3964 26.6341 3.38967C26.5511 3.38295 26.4678 3.39753 26.392 3.43203L24.8794 4.12219C24.7572 4.05516 24.6345 3.98875 24.5117 3.92453L24.2441 2.28297C24.2308 2.20108 24.1967 2.12398 24.1451 2.05905C24.0935 1.99412 24.026 1.94355 23.9492 1.91219C23.8726 1.8803 23.7891 1.86858 23.7066 1.87816C23.6242 1.88773 23.5456 1.91828 23.4783 1.96688L22.1302 2.93766C21.9973 2.89547 21.8641 2.85485 21.7302 2.81609L21.1495 1.25828C21.1207 1.1804 21.0723 1.11121 21.0091 1.05733C20.9459 1.00344 20.8699 0.96665 20.7884 0.95047C20.707 0.934507 20.6228 0.939511 20.5438 0.965012C20.4648 0.990512 20.3936 1.03567 20.3369 1.09625L19.2016 2.31531C19.0641 2.29993 18.9264 2.28649 18.7886 2.275L17.9114 0.855939C17.8675 0.785151 17.8062 0.72677 17.7334 0.686348C17.6606 0.645927 17.5786 0.624808 17.4953 0.625001C17.325 0.625001 17.1695 0.712501 17.0825 0.855939L16.2052 2.27484C16.0674 2.28638 15.9297 2.29987 15.7923 2.31531L14.657 1.09625C14.6003 1.03562 14.5291 0.990431 14.4501 0.964926C14.3711 0.939422 14.2869 0.934447 14.2055 0.95047C14.1239 0.966555 14.0479 1.00331 13.9847 1.0572C13.9214 1.1111 13.873 1.18034 13.8442 1.25828L13.2638 2.81609C13.1298 2.85469 12.9966 2.89516 12.8638 2.93766L11.5156 1.96688C11.4484 1.91818 11.3698 1.88758 11.2873 1.878C11.2048 1.86842 11.1213 1.8802 11.0447 1.91219C10.9682 1.94392 10.901 1.99459 10.8494 2.05942C10.7979 2.12425 10.7637 2.20112 10.75 2.28281L10.4823 3.92438C10.3589 3.98844 10.2363 4.05438 10.1147 4.12203L8.60203 3.43188C8.52637 3.39736 8.44314 3.38275 8.36024 3.38942C8.27734 3.39609 8.19752 3.42383 8.12834 3.47C8.05917 3.51616 8.00293 3.57924 7.96497 3.65323C7.927 3.72723 7.90857 3.8097 7.91141 3.89281L7.96953 5.56C7.86172 5.64641 7.755 5.73422 7.64953 5.82328L6.02719 5.43953C5.94612 5.42062 5.86157 5.42263 5.78148 5.44537C5.7014 5.46811 5.62841 5.51084 5.56938 5.56953C5.51042 5.62839 5.4675 5.70136 5.44472 5.7815C5.42194 5.86164 5.42004 5.94627 5.43922 6.02734L5.81985 7.64969C5.73085 7.75486 5.64334 7.86127 5.55735 7.96891L3.88985 7.91078C3.80686 7.90813 3.72456 7.9266 3.65066 7.96445C3.57676 8.0023 3.51369 8.05829 3.46735 8.12719C3.42105 8.1964 3.39321 8.2763 3.38648 8.3593C3.37976 8.4423 3.39436 8.52564 3.42891 8.60141L4.11922 10.117C4.05203 10.2388 3.98563 10.3612 3.92141 10.4847L2.27969 10.7519C2.19781 10.7651 2.12071 10.7992 2.05578 10.8508C1.99085 10.9024 1.94028 10.9698 1.90891 11.0466C1.87718 11.1232 1.86555 11.2067 1.87512 11.2891C1.88469 11.3714 1.91515 11.45 1.9636 11.5173L2.93453 12.8655C2.89188 12.9992 2.85125 13.1336 2.81266 13.2686L1.25485 13.8491C1.17703 13.8781 1.10793 13.9265 1.05411 13.9897C1.00028 14.053 0.963523 14.1289 0.947318 14.2104C0.931114 14.2918 0.936004 14.3761 0.961524 14.4551C0.987044 14.5341 1.03235 14.6053 1.09313 14.6619L2.31235 15.797C2.29703 15.9344 2.2836 16.072 2.27203 16.2098L0.856096 17.087C0.785225 17.1309 0.726775 17.1922 0.68632 17.265C0.645865 17.3379 0.624754 17.4199 0.625002 17.5033C0.625002 17.6739 0.712502 17.8289 0.85594 17.9161L2.27188 18.7933C2.28344 18.9311 2.29688 19.0686 2.31219 19.2061L1.09297 20.3412C1.03222 20.3978 0.986946 20.469 0.961438 20.548C0.935929 20.627 0.931036 20.7112 0.947223 20.7926C0.96341 20.874 1.00014 20.95 1.05392 21.0132C1.10771 21.0764 1.17676 21.1249 1.25453 21.1539L2.81235 21.7345C2.85132 21.8694 2.89195 22.0038 2.93422 22.1377L1.9636 23.4856C1.89004 23.5874 1.85872 23.7137 1.87619 23.8381C1.89367 23.9625 1.95858 24.0752 2.05735 24.1528C2.12281 24.2044 2.20047 24.2383 2.28281 24.2512L3.92453 24.5183C3.98813 24.642 4.05422 24.7645 4.12219 24.8859L3.43203 26.3984C3.39757 26.4741 3.38299 26.5573 3.38968 26.6402C3.39637 26.7231 3.42411 26.8029 3.47027 26.8721C3.51643 26.9412 3.57948 26.9974 3.65345 27.0354C3.72742 27.0734 3.80987 27.0919 3.89297 27.0891L5.55703 27.0306C5.64344 27.1384 5.73125 27.245 5.82031 27.3505L5.43985 28.9728C5.42068 29.0534 5.42255 29.1375 5.44529 29.2171C5.46803 29.2968 5.51087 29.3692 5.56969 29.4275C5.62855 29.4865 5.70157 29.5294 5.78175 29.5521C5.86194 29.5748 5.9466 29.5766 6.02766 29.5572L7.65016 29.1766C7.75536 29.2658 7.86199 29.3533 7.97 29.4391L7.91203 31.1064C7.90896 31.1895 7.92725 31.2719 7.96514 31.3459C8.00302 31.4198 8.05925 31.4829 8.12844 31.5289C8.1977 31.5751 8.27761 31.6028 8.36058 31.6093C8.44355 31.6159 8.52682 31.6012 8.6025 31.5666L10.1152 30.8766C10.2369 30.9441 10.3594 31.01 10.4828 31.0742L10.7505 32.7156C10.7639 32.7979 10.798 32.8754 10.8495 32.9408C10.9011 33.0063 10.9685 33.0576 11.0453 33.0898C11.1219 33.1217 11.2054 33.1334 11.2879 33.1239C11.3703 33.1143 11.4489 33.0838 11.5163 33.0353L12.8644 32.0645C12.9977 32.1069 13.1316 32.1481 13.2675 32.1869L13.8481 33.7445C13.8771 33.8223 13.9255 33.8914 13.9887 33.9452C14.052 33.999 14.1279 34.0357 14.2094 34.0519C14.2908 34.0682 14.3751 34.0633 14.4541 34.0378C14.5332 34.0123 14.6044 33.9669 14.6609 33.9061L15.7963 32.687C15.9333 32.7028 16.0714 32.7161 16.2091 32.7283L17.0864 34.1441C17.13 34.2144 17.1907 34.2726 17.2629 34.313C17.3351 34.3534 17.4165 34.3747 17.4992 34.375C17.5824 34.3746 17.6641 34.3532 17.7369 34.3129C17.8096 34.2725 17.871 34.2144 17.9153 34.1441L18.7925 32.7283C18.9306 32.7161 19.0683 32.7028 19.2055 32.687L20.3406 33.9061C20.3971 33.967 20.4683 34.0124 20.5474 34.0379C20.6264 34.0635 20.7107 34.0683 20.7922 34.0519C20.8737 34.0358 20.9497 33.9992 21.0129 33.9454C21.0762 33.8915 21.1246 33.8224 21.1534 33.7445L21.7341 32.1869C21.8689 32.1481 22.0027 32.1069 22.1372 32.0645L23.4855 33.0353C23.553 33.0838 23.6318 33.1142 23.7144 33.1236C23.797 33.133 23.8807 33.1211 23.9574 33.0891C24.0341 33.0571 24.1014 33.006 24.1528 32.9406C24.2042 32.8753 24.238 32.7979 24.2511 32.7158L24.5187 31.0742C24.6427 31.01 24.7652 30.9433 24.8864 30.8766L26.3991 31.5666C26.4748 31.6012 26.5581 31.6159 26.6411 31.6093C26.724 31.6027 26.804 31.575 26.8733 31.5289C26.9423 31.4827 26.9984 31.4196 27.0363 31.3457C27.0741 31.2718 27.0925 31.1894 27.0897 31.1064L27.0316 29.4391C27.1395 29.3533 27.2461 29.2658 27.3512 29.1766L28.9736 29.5572C29.0543 29.5763 29.1386 29.5745 29.2185 29.552C29.2984 29.5295 29.3712 29.487 29.43 29.4285C29.4889 29.37 29.5319 29.2974 29.5549 29.2177C29.5779 29.138 29.5802 29.0537 29.5616 28.9728L29.1809 27.3506C29.2701 27.2453 29.3576 27.1387 29.4434 27.0306L31.1109 27.0891C31.194 27.0922 31.2765 27.074 31.3505 27.0361C31.4245 26.9982 31.4875 26.9419 31.5334 26.8727C31.5798 26.8035 31.6076 26.7235 31.6143 26.6405C31.621 26.5575 31.6063 26.4741 31.5716 26.3984L30.8814 24.8859C30.9486 24.7642 31.0145 24.6417 31.0788 24.5183L32.7205 24.2512C32.8024 24.2383 32.8797 24.2043 32.9446 24.1527C33.0096 24.101 33.0601 24.0335 33.0912 23.9566C33.1231 23.8799 33.1348 23.7964 33.1252 23.714C33.1157 23.6315 33.0851 23.5529 33.0366 23.4856L32.0656 22.1377C32.1081 22.0037 32.1488 21.8694 32.1877 21.7345L33.7455 21.1539C33.8233 21.125 33.8924 21.0766 33.9462 21.0134C34 20.9502 34.0367 20.8742 34.0528 20.7928C34.0692 20.7114 34.0644 20.6271 34.0388 20.548C34.0133 20.4689 33.9679 20.3978 33.907 20.3412L32.6878 19.2061C32.7028 19.0686 32.7163 18.9309 32.7281 18.7933L34.1441 17.9161C34.2145 17.8727 34.2727 17.8119 34.3131 17.7397C34.3536 17.6674 34.3749 17.5861 34.375 17.5033C34.3748 17.4201 34.3535 17.3383 34.3132 17.2656C34.2728 17.1928 34.2148 17.1315 34.1444 17.0872H34.1344ZM24.652 28.8586C24.1102 28.7419 23.7683 28.2072 23.8844 27.6653C23.9118 27.5365 23.9644 27.4144 24.0391 27.3059C24.1138 27.1974 24.2091 27.1048 24.3196 27.0332C24.4302 26.9616 24.5538 26.9125 24.6833 26.8887C24.8128 26.8649 24.9458 26.8669 25.0745 26.8945C25.6164 27.0103 25.9614 27.5459 25.8453 28.0878C25.8178 28.2166 25.7652 28.3387 25.6905 28.4472C25.6158 28.5556 25.5205 28.6483 25.41 28.7198C25.2994 28.7914 25.1759 28.8405 25.0464 28.8643C24.9169 28.8881 24.7839 28.8862 24.6552 28.8586H24.652ZM24.1714 25.6013C23.678 25.4955 23.1909 25.8097 23.0877 26.3044L22.5845 28.6522C21.0331 29.3553 19.2947 29.7487 17.4886 29.7487C15.6308 29.7487 13.8761 29.3391 12.2958 28.6037L11.7927 26.2559C11.6869 25.7625 11.2023 25.4466 10.7089 25.553L8.635 25.998C8.25059 25.6006 7.89288 25.1783 7.56422 24.7338H17.6595C17.7738 24.7338 17.8498 24.7131 17.8498 24.6092V21.0295C17.8498 20.9256 17.7738 20.905 17.6595 20.905H14.7083V18.6442H17.8981C18.1894 18.6442 19.4559 18.7275 19.8592 20.347C19.9859 20.8437 20.2656 22.4627 20.4558 22.9819C20.6455 23.5623 21.417 24.7234 22.2394 24.7234H27.2709C27.328 24.7234 27.3889 24.717 27.4531 24.7053C27.1044 25.1787 26.7228 25.627 26.3114 26.047L24.1891 25.5922L24.1714 25.6013ZM10.2058 28.8102C10.077 28.8379 9.94403 28.84 9.81446 28.8162C9.68489 28.7925 9.56129 28.7434 9.45072 28.6718C9.34016 28.6002 9.24481 28.5075 9.17015 28.3989C9.09549 28.2904 9.04298 28.1682 9.01563 28.0394C8.9 27.4977 9.24406 26.9622 9.78656 26.8461C10.0466 26.7905 10.3181 26.8405 10.5413 26.985C10.7645 27.1296 10.9211 27.3568 10.9767 27.6169C11.0923 28.1588 10.748 28.6941 10.2058 28.8102ZM6.36766 13.2977C6.47541 13.5411 6.48228 13.8173 6.38678 14.0657C6.29127 14.3142 6.10117 14.5147 5.85813 14.6233C5.35172 14.848 4.76141 14.6194 4.53563 14.1138C4.30985 13.608 4.53953 13.0139 5.04531 12.7883C5.28823 12.6806 5.56396 12.6738 5.81191 12.7693C6.05986 12.8648 6.25975 13.0548 6.36766 13.2977ZM5.19063 16.0844L7.35156 15.1234C7.81281 14.9186 8.0225 14.3783 7.81594 13.9172L7.37094 12.9109H9.11875V20.78H5.60313C5.29015 19.6785 5.13166 18.5389 5.13219 17.3937C5.13219 16.9455 5.15641 16.5036 5.20281 16.0683L5.19031 16.0844H5.19063ZM14.673 15.32V12.9981H18.8338C19.0488 12.9981 20.3528 13.2466 20.3528 14.2203C20.3528 15.0297 19.353 15.32 18.5305 15.32H14.6602H14.673ZM29.7997 17.4098C29.7997 17.7181 29.7884 18.0227 29.7659 18.3258H28.4983C28.3716 18.3258 28.3206 18.4089 28.3206 18.5331V19.1136C28.3206 20.4811 27.5497 20.7809 26.8725 20.8552C26.2273 20.9277 25.5145 20.5855 25.4275 20.1908C25.0469 18.0527 24.4147 17.5978 23.4148 16.8045C24.6567 16.0177 25.9467 14.8534 25.9467 13.2892C25.9467 11.6091 24.7953 10.5513 24.0116 10.0319C22.9086 9.30625 21.6894 9.16125 21.3603 9.16125H8.26547C10.0427 7.18109 12.4584 5.77484 15.1677 5.25891L16.7125 6.87781C16.7954 6.9648 16.8947 7.03458 17.0046 7.08316C17.1145 7.13174 17.2329 7.15817 17.3531 7.16092C17.4732 7.16368 17.5927 7.14272 17.7047 7.09923C17.8168 7.05575 17.9191 6.99059 18.0059 6.9075L19.7347 5.25625C23.347 5.93031 26.4111 8.18141 28.185 11.2872L27.0012 13.9575C26.7972 14.4186 27.0055 14.9605 27.4658 15.1637L29.7428 16.1762C29.7827 16.5836 29.8027 16.9925 29.8028 17.4017L29.7995 17.4098H29.7997ZM16.705 3.89688C16.8 3.80583 16.912 3.73444 17.0347 3.68679C17.1573 3.63914 17.2882 3.61617 17.4198 3.61921C17.5513 3.62224 17.681 3.65122 17.8013 3.70447C17.9216 3.75772 18.0302 3.8342 18.1209 3.92953C18.3042 4.12238 18.4036 4.37998 18.3973 4.64594C18.3911 4.91189 18.2797 5.16455 18.0877 5.34859C17.9927 5.43967 17.8806 5.51108 17.758 5.55874C17.6353 5.6064 17.5044 5.62937 17.3729 5.62632C17.2413 5.62327 17.1116 5.59427 16.9913 5.54098C16.871 5.48769 16.7624 5.41116 16.6717 5.31578C16.4884 5.12294 16.3889 4.86531 16.3952 4.5993C16.4014 4.33329 16.5128 4.08059 16.705 3.89656V3.89688ZM28.4452 13.3462C28.4984 13.2258 28.5748 13.1171 28.6701 13.0263C28.7654 12.9355 28.8777 12.8644 29.0006 12.817C29.1234 12.7697 29.2544 12.7471 29.386 12.7505C29.5176 12.7539 29.6473 12.7833 29.7675 12.8369C29.888 12.8904 29.9967 12.9672 30.0876 13.0628C30.1784 13.1584 30.2495 13.2709 30.2968 13.394C30.3441 13.5171 30.3667 13.6482 30.3633 13.7801C30.3599 13.9119 30.3306 14.0417 30.277 14.1622C30.2238 14.2826 30.1474 14.3914 30.0521 14.4822C29.9568 14.573 29.8445 14.6442 29.7216 14.6915C29.5988 14.7388 29.4678 14.7615 29.3362 14.7581C29.2046 14.7547 29.0749 14.7253 28.9547 14.6717C28.8342 14.6182 28.7254 14.5414 28.6346 14.4458C28.5438 14.3502 28.4726 14.2376 28.4253 14.1145C28.378 13.9915 28.3554 13.8603 28.3588 13.7284C28.3622 13.5966 28.3916 13.4667 28.4452 13.3462Z" fill="black"/>
</g>
<defs>
<clipPath id="clip0_2192_351">
<rect width="35" height="35" fill="white"/>
</clipPath>
</defs>
</svg>
