<svg width="36" height="35" viewBox="0 0 36 35" fill="none" xmlns="http://www.w3.org/2000/svg">
<path fill-rule="evenodd" clip-rule="evenodd" d="M27.988 4.64383C28.4436 5.09944 28.4436 5.83814 27.988 6.29375L7.20671 27.075C6.7511 27.5306 6.01241 27.5306 5.5568 27.075C5.10118 26.6194 5.10118 25.8807 5.5568 25.4251L26.338 4.64383C26.7937 4.18822 27.5324 4.18822 27.988 4.64383ZM30.1755 16.6751C30.6311 17.1307 30.6311 17.8694 30.1755 18.325L19.238 29.2625C18.7823 29.7181 18.0437 29.7181 17.588 29.2625C17.1324 28.8069 17.1324 28.0682 17.588 27.6126L28.5255 16.6751C28.9812 16.2195 29.7198 16.2195 30.1755 16.6751Z" fill="black"/>
</svg>
