<svg width="36" height="35" viewBox="0 0 36 35" fill="none" xmlns="http://www.w3.org/2000/svg">
<g clip-path="url(#clip0_2177_656)">
<path d="M3.67175 0H33.203C34.7132 0 35.9374 1.22418 35.9374 2.73438V32.2656C35.9374 33.7758 34.7132 35 33.203 35H3.67175C2.16156 35 0.937378 33.7758 0.937378 32.2656V2.73438C0.937378 1.22418 2.16156 0 3.67175 0Z" fill="#3178C6"/>
<path d="M21.5159 27.4087V31.1849C22.13 31.4996 22.8564 31.7356 23.6949 31.8929C24.5334 32.0503 25.4172 32.1289 26.3463 32.1289C27.2516 32.1289 28.1119 32.0424 28.9267 31.8693C29.7416 31.6962 30.4562 31.411 31.0702 31.0138C31.6843 30.6165 32.1705 30.0973 32.5289 29.4561C32.8871 28.815 33.0662 28.0224 33.0662 27.0784C33.0662 26.394 32.9638 25.794 32.7591 25.2787C32.5567 24.7669 32.2557 24.2999 31.8733 23.904C31.4876 23.5028 31.025 23.1429 30.4857 22.8242C29.9464 22.5057 29.3381 22.2048 28.6609 21.9216C28.1649 21.717 27.7202 21.5184 27.3264 21.3257C26.9328 21.1329 26.5981 20.9363 26.3226 20.7356C26.047 20.535 25.8344 20.3226 25.6849 20.0983C25.5353 19.8741 25.4605 19.6205 25.4605 19.3372C25.4605 19.0776 25.5274 18.8437 25.6612 18.6352C25.795 18.4267 25.9841 18.2477 26.2282 18.0983C26.4722 17.9487 26.7714 17.8328 27.1257 17.7501C27.48 17.6675 27.8737 17.6262 28.3067 17.6262C28.6217 17.6262 28.9543 17.6498 29.3046 17.697C29.655 17.7442 30.0074 17.8169 30.3617 17.9154C30.715 18.0133 31.0604 18.1375 31.395 18.2871C31.7196 18.4309 32.0299 18.6047 32.3221 18.8062V15.2779C31.7474 15.0577 31.1194 14.8944 30.4384 14.7882C29.7574 14.682 28.9759 14.6289 28.0941 14.6289C27.1966 14.6289 26.3463 14.7253 25.5432 14.9181C24.7401 15.1107 24.0334 15.4116 23.4233 15.8207C22.8131 16.2299 22.3309 16.7511 21.9765 17.3843C21.6223 18.0176 21.4451 18.7748 21.4451 19.6559C21.4451 20.7808 21.7698 21.7406 22.4195 22.5352C23.069 23.3297 24.055 24.0023 25.3778 24.553C25.8661 24.7519 26.3504 24.9604 26.8304 25.1785C27.2793 25.3831 27.667 25.5954 27.9938 25.8156C28.3205 26.0359 28.5784 26.2758 28.7673 26.5355C28.9563 26.7951 29.0507 27.0901 29.0507 27.4206C29.0523 27.6584 28.9912 27.8924 28.8735 28.0991C28.7556 28.3075 28.5763 28.4885 28.3362 28.6419C28.0962 28.7953 27.7969 28.9152 27.4387 29.0017C27.0805 29.0883 26.6612 29.1316 26.1809 29.1316C25.3621 29.1316 24.5512 28.9881 23.7481 28.7008C22.9449 28.4137 22.2009 27.983 21.5159 27.4087ZM15.2219 18.0116H20.0779V14.9023H6.54272V18.0116H11.375V31.8555H15.2219V18.0116Z" fill="white"/>
</g>
<defs>
<clipPath id="clip0_2177_656">
<rect width="35" height="35" fill="white" transform="translate(0.937378)"/>
</clipPath>
</defs>
</svg>
